<svg width="111" height="26" viewBox="0 0 111 26" fill="none" xmlns="http://www.w3.org/2000/svg">
<path d="M11.875 9.96269L3.75 13.8627L11.875 17.8377V20.7127L0.0500001 14.6377V13.1127L11.875 7.01269V9.96269ZM22.0486 13.9377L16.8736 4.88769L15.4986 4.56269V2.81269H23.3736V4.56269L21.7486 4.91269L24.5986 10.6377L25.2236 12.2627L25.8736 10.6377L28.4486 4.91269L26.5486 4.56269V2.81269H32.9236V4.56269L31.3986 4.83769L26.5986 13.9127V19.4627L29.2486 19.7377V21.3877H19.4736V19.7377L22.0486 19.4627V13.9377ZM34.3299 17.3877C34.3299 15.921 35.0715 14.796 36.5549 14.0127C38.0549 13.2294 40.0215 12.8294 42.4549 12.8127V12.3127C42.4549 11.7127 42.3882 11.2377 42.2549 10.8877C42.1215 10.5377 41.8799 10.2794 41.5299 10.1127C41.1799 9.92936 40.6632 9.8377 39.9799 9.8377C39.1632 9.8377 38.4299 9.93769 37.7799 10.1377C37.1465 10.321 36.4799 10.571 35.7799 10.8877L34.9299 9.08769C35.1965 8.87103 35.6299 8.6127 36.2299 8.3127C36.8299 7.99603 37.5465 7.72936 38.3799 7.5127C39.2299 7.27936 40.1132 7.1627 41.0299 7.1627C42.3632 7.1627 43.4049 7.33769 44.1549 7.68769C44.9215 8.03769 45.4632 8.57936 45.7799 9.3127C46.1132 10.046 46.2799 11.046 46.2799 12.3127V19.7377H47.5799V21.3127C47.1966 21.396 46.6632 21.4794 45.9799 21.5627C45.2965 21.646 44.7132 21.6877 44.2299 21.6877C43.5965 21.6877 43.1715 21.596 42.9549 21.4127C42.7549 21.2294 42.6549 20.8627 42.6549 20.3127V19.7377C42.2382 20.2377 41.6799 20.6877 40.9799 21.0877C40.2799 21.471 39.4715 21.6627 38.5549 21.6627C37.7715 21.6627 37.0549 21.496 36.4049 21.1627C35.7715 20.8127 35.2632 20.321 34.8799 19.6877C34.5132 19.0377 34.3299 18.271 34.3299 17.3877ZM40.5049 19.3627C40.8049 19.3627 41.1382 19.2794 41.5049 19.1127C41.8715 18.9294 42.1882 18.7127 42.4549 18.4627V14.4877C41.1549 14.4877 40.1882 14.721 39.5549 15.1877C38.9382 15.6544 38.6299 16.2544 38.6299 16.9877C38.6299 17.7377 38.7965 18.321 39.1299 18.7377C39.4632 19.1544 39.9215 19.3627 40.5049 19.3627ZM55.3627 21.6627C53.7627 21.6627 52.4627 21.0877 51.4627 19.9377C50.4627 18.7877 49.9627 17.0627 49.9627 14.7627C49.9627 13.3794 50.246 12.1127 50.8127 10.9627C51.396 9.79603 52.246 8.87103 53.3627 8.1877C54.496 7.48769 55.8627 7.13769 57.4627 7.13769C57.946 7.13769 58.446 7.19603 58.9627 7.31269V3.33769L56.5627 2.98769V1.3877L62.0877 0.887694H62.2127L62.9627 1.48769V19.7127H64.2627V21.3127C62.9794 21.5627 61.9127 21.6877 61.0627 21.6877C60.4794 21.6877 60.0544 21.5877 59.7877 21.3877C59.5377 21.2044 59.4127 20.8377 59.4127 20.2877V19.6627C59.0127 20.246 58.4377 20.7294 57.6877 21.1127C56.9377 21.4794 56.1627 21.6627 55.3627 21.6627ZM56.8627 19.4127C57.3294 19.4127 57.7377 19.321 58.0877 19.1377C58.4544 18.9377 58.746 18.7044 58.9627 18.4377V9.38769C58.846 9.23769 58.6294 9.11269 58.3127 9.01269C58.0127 8.91269 57.6877 8.86269 57.3377 8.86269C56.4044 8.86269 55.6627 9.31269 55.1127 10.2127C54.5627 11.096 54.2877 12.546 54.2877 14.5627C54.2877 16.2127 54.521 17.4377 54.9877 18.2377C55.4544 19.021 56.0794 19.4127 56.8627 19.4127ZM78.4354 21.6377C77.8354 21.6377 77.402 21.5127 77.1354 21.2627C76.8687 20.996 76.7354 20.6127 76.7354 20.1127V19.5627C76.3354 20.1127 75.7354 20.6044 74.9354 21.0377C74.1354 21.4544 73.327 21.6627 72.5104 21.6627C70.877 21.6627 69.7104 21.2627 69.0104 20.4627C68.327 19.646 67.9854 18.2877 67.9854 16.3877V9.43769L66.8104 9.11269V7.5127L71.5104 7.18769H71.5354L72.0854 7.53769V16.4877C72.0854 17.571 72.2187 18.3294 72.4854 18.7627C72.752 19.1794 73.227 19.3877 73.9104 19.3877C74.8437 19.3877 75.627 19.071 76.2604 18.4377V9.43769L74.7104 9.06269V7.5127L79.6604 7.18769H79.7354L80.3354 7.53769V19.6627H81.6604V21.2627C81.0937 21.3794 80.5687 21.471 80.0854 21.5377C79.6187 21.6044 79.0687 21.6377 78.4354 21.6377ZM87.0492 25.8127H84.2492L90.6242 1.86269H93.3992L87.0492 25.8127ZM98.3158 20.7127V17.8377L106.441 13.8627L98.3158 9.96269V7.01269L110.141 13.1127V14.6377L98.3158 20.7127Z" fill="white"/>
</svg>
