<svg width="152" height="322" viewBox="0 0 152 322" fill="none" xmlns="http://www.w3.org/2000/svg">
<g clip-path="url(#clip0)">
<path d="M75.9 6.4C74.1 6.4 72.7 5 72.7 3.2C72.7 1.4 74.1 0 75.9 0C77.7 0 79.1 1.4 79.1 3.2C79.1 5 77.7 6.4 75.9 6.4Z" fill="#FF00BF"/>
<path d="M75.9 30.7001C74.1 30.7001 72.7 29.3 72.7 27.5C72.7 25.7 74.1 24.3 75.9 24.3C77.7 24.3 79.1 25.7 79.1 27.5C79.1 29.3 77.7 30.7001 75.9 30.7001Z" fill="#FF00BF"/>
<path d="M75.9 55C74.1 55 72.7 53.6 72.7 51.8C72.7 50 74.1 48.6 75.9 48.6C77.7 48.6 79.1 50 79.1 51.8C79.1 53.6 77.7 55 75.9 55Z" fill="#FF00BF"/>
<path d="M75.9 79.2C74.1 79.2 72.7 77.8 72.7 76C72.7 74.2 74.1 72.8 75.9 72.8C77.7 72.8 79.1 74.2 79.1 76C79.1 77.8 77.7 79.2 75.9 79.2Z" fill="#FF00BF"/>
<path d="M75.9 103.5C74.1 103.5 72.7 102.1 72.7 100.3C72.7 98.5 74.1 97.1 75.9 97.1C77.7 97.1 79.1 98.5 79.1 100.3C79.1 102.1 77.7 103.5 75.9 103.5Z" fill="#FF00BF"/>
<path d="M75.9 127.8C74.1 127.8 72.7 126.4 72.7 124.6C72.7 122.8 74.1 121.4 75.9 121.4C77.7 121.4 79.1 122.8 79.1 124.6C79.1 126.3 77.7 127.8 75.9 127.8Z" fill="#FF00BF"/>
<path d="M75.9 152.1C74.1 152.1 72.7 150.7 72.7 148.9C72.7 147.1 74.1 145.7 75.9 145.7C77.7 145.7 79.1 147.1 79.1 148.9C79.1 150.7 77.7 152.1 75.9 152.1Z" fill="#FF00BF"/>
<path d="M75.9 176.3C74.1 176.3 72.7 174.9 72.7 173.1C72.7 171.3 74.1 169.9 75.9 169.9C77.7 169.9 79.1 171.3 79.1 173.1C79.1 174.9 77.7 176.3 75.9 176.3Z" fill="#FF00BF"/>
<path d="M75.9 200.6C74.1 200.6 72.7 199.2 72.7 197.4C72.7 195.6 74.1 194.2 75.9 194.2C77.7 194.2 79.1 195.6 79.1 197.4C79.1 199.1 77.7 200.6 75.9 200.6Z" fill="#FF00BF"/>
<path d="M75.9 224.9C74.1 224.9 72.7 223.5 72.7 221.7C72.7 219.9 74.1 218.5 75.9 218.5C77.7 218.5 79.1 219.9 79.1 221.7C79.1 223.4 77.7 224.9 75.9 224.9Z" fill="#FF00BF"/>
<path d="M75.9 249.1C74.1 249.1 72.7 247.7 72.7 245.9C72.7 244.1 74.1 242.7 75.9 242.7C77.7 242.7 79.1 244.1 79.1 245.9C79.1 247.7 77.7 249.1 75.9 249.1Z" fill="#FF00BF"/>
<path d="M75.9 273.4C74.1 273.4 72.7 272 72.7 270.2C72.7 268.4 74.1 267 75.9 267C77.7 267 79.1 268.4 79.1 270.2C79.1 272 77.7 273.4 75.9 273.4Z" fill="#FF00BF"/>
<path d="M75.9 297.7C74.1 297.7 72.7 296.3 72.7 294.5C72.7 292.7 74.1 291.3 75.9 291.3C77.7 291.3 79.1 292.7 79.1 294.5C79.1 296.2 77.7 297.7 75.9 297.7Z" fill="#FF00BF"/>
<path d="M75.9 321.9C74.1 321.9 72.7 320.5 72.7 318.7C72.7 316.9 74.1 315.5 75.9 315.5C77.7 315.5 79.1 316.9 79.1 318.7C79.1 320.5 77.7 321.9 75.9 321.9Z" fill="#FF00BF"/>
<path d="M39.5999 6.4C37.7999 6.4 36.3999 5 36.3999 3.2C36.3999 1.4 37.7999 0 39.5999 0C41.3999 0 42.7999 1.4 42.7999 3.2C42.7999 5 41.2999 6.4 39.5999 6.4Z" fill="#FF00BF"/>
<path d="M39.5999 30.7001C37.7999 30.7001 36.3999 29.3 36.3999 27.5C36.3999 25.7 37.7999 24.3 39.5999 24.3C41.3999 24.3 42.7999 25.7 42.7999 27.5C42.7999 29.3 41.2999 30.7001 39.5999 30.7001Z" fill="#FF00BF"/>
<path d="M39.5999 55C37.7999 55 36.3999 53.6 36.3999 51.8C36.3999 50 37.7999 48.6 39.5999 48.6C41.3999 48.6 42.7999 50 42.7999 51.8C42.7999 53.6 41.2999 55 39.5999 55Z" fill="#FF00BF"/>
<path d="M39.5999 79.2C37.7999 79.2 36.3999 77.8 36.3999 76C36.3999 74.2 37.7999 72.8 39.5999 72.8C41.3999 72.8 42.7999 74.2 42.7999 76C42.7999 77.8 41.2999 79.2 39.5999 79.2Z" fill="#FF00BF"/>
<path d="M39.5999 103.5C37.7999 103.5 36.3999 102.1 36.3999 100.3C36.3999 98.5 37.7999 97.1 39.5999 97.1C41.3999 97.1 42.7999 98.5 42.7999 100.3C42.7999 102.1 41.2999 103.5 39.5999 103.5Z" fill="#FF00BF"/>
<path d="M39.5999 127.8C37.7999 127.8 36.3999 126.4 36.3999 124.6C36.3999 122.8 37.7999 121.4 39.5999 121.4C41.3999 121.4 42.7999 122.8 42.7999 124.6C42.7999 126.3 41.2999 127.8 39.5999 127.8Z" fill="#FF00BF"/>
<path d="M39.5999 152.1C37.7999 152.1 36.3999 150.7 36.3999 148.9C36.3999 147.1 37.7999 145.7 39.5999 145.7C41.3999 145.7 42.7999 147.1 42.7999 148.9C42.7999 150.7 41.2999 152.1 39.5999 152.1Z" fill="#FF00BF"/>
<path d="M39.5999 176.3C37.7999 176.3 36.3999 174.9 36.3999 173.1C36.3999 171.3 37.7999 169.9 39.5999 169.9C41.3999 169.9 42.7999 171.3 42.7999 173.1C42.7999 174.9 41.2999 176.3 39.5999 176.3Z" fill="#FF00BF"/>
<path d="M39.5999 200.6C37.7999 200.6 36.3999 199.2 36.3999 197.4C36.3999 195.6 37.7999 194.2 39.5999 194.2C41.3999 194.2 42.7999 195.6 42.7999 197.4C42.7999 199.1 41.2999 200.6 39.5999 200.6Z" fill="#FF00BF"/>
<path d="M39.5999 224.9C37.7999 224.9 36.3999 223.5 36.3999 221.7C36.3999 219.9 37.7999 218.5 39.5999 218.5C41.3999 218.5 42.7999 219.9 42.7999 221.7C42.7999 223.4 41.2999 224.9 39.5999 224.9Z" fill="#FF00BF"/>
<path d="M39.5999 249.1C37.7999 249.1 36.3999 247.7 36.3999 245.9C36.3999 244.1 37.7999 242.7 39.5999 242.7C41.3999 242.7 42.7999 244.1 42.7999 245.9C42.7999 247.7 41.2999 249.1 39.5999 249.1Z" fill="#FF00BF"/>
<path d="M39.5999 273.4C37.7999 273.4 36.3999 272 36.3999 270.2C36.3999 268.4 37.7999 267 39.5999 267C41.3999 267 42.7999 268.4 42.7999 270.2C42.7999 272 41.2999 273.4 39.5999 273.4Z" fill="#FF00BF"/>
<path d="M39.5999 297.7C37.7999 297.7 36.3999 296.3 36.3999 294.5C36.3999 292.7 37.7999 291.3 39.5999 291.3C41.3999 291.3 42.7999 292.7 42.7999 294.5C42.7999 296.2 41.2999 297.7 39.5999 297.7Z" fill="#FF00BF"/>
<path d="M39.5999 321.9C37.7999 321.9 36.3999 320.5 36.3999 318.7C36.3999 316.9 37.7999 315.5 39.5999 315.5C41.3999 315.5 42.7999 316.9 42.7999 318.7C42.7999 320.5 41.2999 321.9 39.5999 321.9Z" fill="#FF00BF"/>
<path d="M3.2 6.4C1.4 6.4 0 5 0 3.2C0 1.4 1.4 0 3.2 0C5 0 6.4 1.4 6.4 3.2C6.4 5 5 6.4 3.2 6.4Z" fill="#FF00BF"/>
<path d="M3.2 30.7001C1.4 30.7001 0 29.3 0 27.5C0 25.7 1.4 24.3 3.2 24.3C5 24.3 6.4 25.7 6.4 27.5C6.4 29.3 5 30.7001 3.2 30.7001Z" fill="#FF00BF"/>
<path d="M3.2 55C1.4 55 0 53.5 0 51.8C0 50.1 1.4 48.6 3.2 48.6C5 48.6 6.4 50 6.4 51.8C6.4 53.6 5 55 3.2 55Z" fill="#FF00BF"/>
<path d="M3.2 79.2C1.4 79.2 0 77.8 0 76C0 74.2 1.4 72.8 3.2 72.8C5 72.8 6.4 74.2 6.4 76C6.4 77.8 5 79.2 3.2 79.2Z" fill="#FF00BF"/>
<path d="M3.2 103.5C1.4 103.5 0 102.1 0 100.3C0 98.5 1.4 97.1 3.2 97.1C5 97.1 6.4 98.5 6.4 100.3C6.4 102.1 5 103.5 3.2 103.5Z" fill="#FF00BF"/>
<path d="M3.2 127.8C1.4 127.8 0 126.4 0 124.6C0 122.8 1.4 121.4 3.2 121.4C5 121.4 6.4 122.8 6.4 124.6C6.4 126.3 5 127.8 3.2 127.8Z" fill="#FF00BF"/>
<path d="M3.2 152.1C1.4 152.1 0 150.7 0 148.9C0 147.1 1.4 145.7 3.2 145.7C5 145.7 6.4 147.1 6.4 148.9C6.4 150.7 5 152.1 3.2 152.1Z" fill="#FF00BF"/>
<path d="M3.2 176.3C1.4 176.3 0 174.9 0 173.1C0 171.3 1.4 169.9 3.2 169.9C5 169.9 6.4 171.3 6.4 173.1C6.4 174.9 5 176.3 3.2 176.3Z" fill="#FF00BF"/>
<path d="M3.2 200.6C1.4 200.6 0 199.2 0 197.4C0 195.6 1.4 194.2 3.2 194.2C5 194.2 6.4 195.6 6.4 197.4C6.4 199.1 5 200.6 3.2 200.6Z" fill="#FF00BF"/>
<path d="M3.2 224.9C1.4 224.9 0 223.5 0 221.7C0 219.9 1.4 218.5 3.2 218.5C5 218.5 6.4 219.9 6.4 221.7C6.4 223.4 5 224.9 3.2 224.9Z" fill="#FF00BF"/>
<path d="M3.2 249.1C1.4 249.1 0 247.7 0 245.9C0 244.1 1.4 242.7 3.2 242.7C5 242.7 6.4 244.1 6.4 245.9C6.4 247.7 5 249.1 3.2 249.1Z" fill="#FF00BF"/>
<path d="M3.2 273.4C1.4 273.4 0 272 0 270.2C0 268.4 1.4 267 3.2 267C5 267 6.4 268.4 6.4 270.2C6.4 272 5 273.4 3.2 273.4Z" fill="#FF00BF"/>
<path d="M3.2 297.7C1.4 297.7 0 296.3 0 294.5C0 292.7 1.4 291.3 3.2 291.3C5 291.3 6.4 292.7 6.4 294.5C6.4 296.2 5 297.7 3.2 297.7Z" fill="#FF00BF"/>
<path d="M3.2 321.9C1.4 321.9 0 320.5 0 318.7C0 316.9 1.4 315.5 3.2 315.5C5 315.5 6.4 316.9 6.4 318.7C6.4 320.5 5 321.9 3.2 321.9Z" fill="#FF00BF"/>
<path d="M112.2 6.4C110.4 6.4 109 5 109 3.2C109 1.4 110.4 0 112.2 0C114 0 115.4 1.4 115.4 3.2C115.4 5 114 6.4 112.2 6.4Z" fill="#FF00BF"/>
<path d="M112.2 30.7001C110.4 30.7001 109 29.3 109 27.5C109 25.7 110.4 24.3 112.2 24.3C114 24.3 115.4 25.7 115.4 27.5C115.4 29.3 114 30.7001 112.2 30.7001Z" fill="#FF00BF"/>
<path d="M112.2 55C110.4 55 109 53.6 109 51.8C109 50 110.4 48.6 112.2 48.6C114 48.6 115.4 50 115.4 51.8C115.4 53.6 114 55 112.2 55Z" fill="#FF00BF"/>
<path d="M112.2 79.2C110.4 79.2 109 77.8 109 76C109 74.2 110.4 72.8 112.2 72.8C114 72.8 115.4 74.2 115.4 76C115.4 77.8 114 79.2 112.2 79.2Z" fill="#FF00BF"/>
<path d="M112.2 103.5C110.4 103.5 109 102.1 109 100.3C109 98.5 110.4 97.1 112.2 97.1C114 97.1 115.4 98.5 115.4 100.3C115.4 102.1 114 103.5 112.2 103.5Z" fill="#FF00BF"/>
<path d="M112.2 127.8C110.4 127.8 109 126.4 109 124.6C109 122.8 110.4 121.4 112.2 121.4C114 121.4 115.4 122.8 115.4 124.6C115.4 126.3 114 127.8 112.2 127.8Z" fill="#FF00BF"/>
<path d="M112.2 152.1C110.4 152.1 109 150.7 109 148.9C109 147.1 110.4 145.7 112.2 145.7C114 145.7 115.4 147.1 115.4 148.9C115.4 150.7 114 152.1 112.2 152.1Z" fill="#FF00BF"/>
<path d="M112.2 176.3C110.4 176.3 109 174.9 109 173.1C109 171.3 110.4 169.9 112.2 169.9C114 169.9 115.4 171.3 115.4 173.1C115.4 174.9 114 176.3 112.2 176.3Z" fill="#FF00BF"/>
<path d="M112.2 200.6C110.4 200.6 109 199.2 109 197.4C109 195.6 110.4 194.2 112.2 194.2C114 194.2 115.4 195.6 115.4 197.4C115.4 199.1 114 200.6 112.2 200.6Z" fill="#FF00BF"/>
<path d="M112.2 224.9C110.4 224.9 109 223.5 109 221.7C109 219.9 110.4 218.5 112.2 218.5C114 218.5 115.4 219.9 115.4 221.7C115.4 223.4 114 224.9 112.2 224.9Z" fill="#FF00BF"/>
<path d="M112.2 249.1C110.4 249.1 109 247.7 109 245.9C109 244.1 110.4 242.7 112.2 242.7C114 242.7 115.4 244.1 115.4 245.9C115.4 247.7 114 249.1 112.2 249.1Z" fill="#FF00BF"/>
<path d="M112.2 273.4C110.4 273.4 109 272 109 270.2C109 268.4 110.4 267 112.2 267C114 267 115.4 268.4 115.4 270.2C115.4 272 114 273.4 112.2 273.4Z" fill="#FF00BF"/>
<path d="M112.2 297.7C110.4 297.7 109 296.3 109 294.5C109 292.7 110.4 291.3 112.2 291.3C114 291.3 115.4 292.7 115.4 294.5C115.4 296.2 114 297.7 112.2 297.7Z" fill="#FF00BF"/>
<path d="M112.2 321.9C110.4 321.9 109 320.5 109 318.7C109 316.9 110.4 315.5 112.2 315.5C114 315.5 115.4 316.9 115.4 318.7C115.4 320.5 114 321.9 112.2 321.9Z" fill="#FF00BF"/>
<path d="M148.6 6.4C146.8 6.4 145.4 5 145.4 3.2C145.4 1.4 146.8 0 148.6 0C150.4 0 151.8 1.4 151.8 3.2C151.8 5 150.3 6.4 148.6 6.4Z" fill="#FF00BF"/>
<path d="M148.6 30.7001C146.8 30.7001 145.4 29.3 145.4 27.5C145.4 25.7 146.8 24.3 148.6 24.3C150.4 24.3 151.8 25.7 151.8 27.5C151.8 29.3 150.3 30.7001 148.6 30.7001Z" fill="#FF00BF"/>
<path d="M148.6 55C146.8 55 145.4 53.6 145.4 51.8C145.4 50 146.8 48.6 148.6 48.6C150.4 48.6 151.8 50 151.8 51.8C151.8 53.6 150.3 55 148.6 55Z" fill="#FF00BF"/>
<path d="M148.6 79.2C146.8 79.2 145.4 77.8 145.4 76C145.4 74.2 146.8 72.8 148.6 72.8C150.4 72.8 151.8 74.2 151.8 76C151.8 77.8 150.3 79.2 148.6 79.2Z" fill="#FF00BF"/>
<path d="M148.6 103.5C146.8 103.5 145.4 102.1 145.4 100.3C145.4 98.5 146.8 97.1 148.6 97.1C150.4 97.1 151.8 98.5 151.8 100.3C151.8 102.1 150.3 103.5 148.6 103.5Z" fill="#FF00BF"/>
<path d="M148.6 127.8C146.8 127.8 145.4 126.4 145.4 124.6C145.4 122.8 146.8 121.4 148.6 121.4C150.4 121.4 151.8 122.8 151.8 124.6C151.8 126.3 150.3 127.8 148.6 127.8Z" fill="#FF00BF"/>
<path d="M148.6 152.1C146.8 152.1 145.4 150.7 145.4 148.9C145.4 147.1 146.8 145.7 148.6 145.7C150.4 145.7 151.8 147.1 151.8 148.9C151.8 150.7 150.3 152.1 148.6 152.1Z" fill="#FF00BF"/>
<path d="M148.6 176.3C146.8 176.3 145.4 174.9 145.4 173.1C145.4 171.3 146.8 169.9 148.6 169.9C150.4 169.9 151.8 171.3 151.8 173.1C151.8 174.9 150.3 176.3 148.6 176.3Z" fill="#FF00BF"/>
<path d="M148.6 200.6C146.8 200.6 145.4 199.2 145.4 197.4C145.4 195.6 146.8 194.2 148.6 194.2C150.4 194.2 151.8 195.6 151.8 197.4C151.8 199.1 150.3 200.6 148.6 200.6Z" fill="#FF00BF"/>
<path d="M148.6 224.9C146.8 224.9 145.4 223.5 145.4 221.7C145.4 219.9 146.8 218.5 148.6 218.5C150.4 218.5 151.8 219.9 151.8 221.7C151.8 223.4 150.3 224.9 148.6 224.9Z" fill="#FF00BF"/>
<path d="M148.6 249.1C146.8 249.1 145.4 247.7 145.4 245.9C145.4 244.1 146.8 242.7 148.6 242.7C150.4 242.7 151.8 244.1 151.8 245.9C151.8 247.7 150.3 249.1 148.6 249.1Z" fill="#FF00BF"/>
<path d="M148.6 273.4C146.8 273.4 145.4 272 145.4 270.2C145.4 268.4 146.8 267 148.6 267C150.4 267 151.8 268.4 151.8 270.2C151.8 272 150.3 273.4 148.6 273.4Z" fill="#FF00BF"/>
<path d="M148.6 297.7C146.8 297.7 145.4 296.3 145.4 294.5C145.4 292.7 146.8 291.3 148.6 291.3C150.4 291.3 151.8 292.7 151.8 294.5C151.8 296.2 150.3 297.7 148.6 297.7Z" fill="#FF00BF"/>
<path d="M148.6 321.9C146.8 321.9 145.4 320.5 145.4 318.7C145.4 316.9 146.8 315.5 148.6 315.5C150.4 315.5 151.8 316.9 151.8 318.7C151.8 320.5 150.3 321.9 148.6 321.9Z" fill="#FF00BF"/>
</g>
<defs>
<clipPath id="clip0">
<rect width="151.8" height="321.9" fill="white"/>
</clipPath>
</defs>
</svg>
