<svg width="733" height="237" viewBox="0 0 733 237" fill="none" xmlns="http://www.w3.org/2000/svg">
<g clip-path="url(#clip0)">
<path d="M651.445 136.944L682.642 136.944L682.642 167.499L651.445 167.499L651.445 136.944Z" fill="white" fill-opacity="0.1"/>
<path d="M711.78 43.062L733 43.062L733 63.9598L711.78 63.9598L711.78 43.062Z" fill="white" fill-opacity="0.1"/>
<path d="M556.589 22.0059L601.087 22.0059L601.087 65.5429L556.589 65.5429L556.589 22.0059Z" fill="white" fill-opacity="0.1"/>
<path d="M427.052 49.0781L427.052 110.03L364.817 110.03L364.817 49.0781L427.052 49.0781ZM380.336 64.2765L380.336 94.6733L411.532 94.6733L411.532 64.2765L380.336 64.2765Z" fill="white" fill-opacity="0.1"/>
<path d="M380.494 64.2764L411.532 64.2764L411.532 94.6732L380.494 94.6732L380.494 64.2764Z" fill="white" fill-opacity="0.1"/>
<path d="M104.75 106.595L69.2773 106.595L69.2773 71.7656L104.75 71.7656L104.75 106.595Z" fill="white" fill-opacity="0.1"/>
<path d="M47.8804 169.301L20.6428 169.301L20.6428 142.704L47.8804 142.704L47.8804 169.301Z" fill="white" fill-opacity="0.1"/>
<path d="M50.4331 53.2806L50.4331 106.633L-4.04218 106.633L-4.04218 53.2806L50.4331 53.2806Z" fill="white" fill-opacity="0.1"/>
<path d="M50.3125 -0.0338631L50.3125 53.3188L-4.16278 53.3189L-4.16279 -0.0338583L50.3125 -0.0338631Z" fill="white" fill-opacity="0.1"/>
<path d="M104.721 0.0332718L104.721 53.386L50.2454 53.386L50.2454 0.0332766L104.721 0.0332718Z" fill="white" fill-opacity="0.1"/>
<path d="M145.601 209.364L104.745 209.364L104.745 169.309L145.601 169.309L145.601 209.364Z" fill="white" fill-opacity="0.1"/>
<path d="M204.563 236.901L186.985 236.901L186.985 219.645L204.563 219.645L204.563 236.901Z" fill="white" fill-opacity="0.1"/>
<path d="M190.525 105.989L141.751 105.989L141.751 58.1772L190.525 58.1771L190.525 105.989Z" fill="white" fill-opacity="0.1"/>
<path d="M285.422 168.202L264.361 168.202L264.361 147.621L285.422 147.621L285.422 168.202Z" fill="white" fill-opacity="0.1"/>
</g>
<defs>
<clipPath id="clip0">
<rect width="737" height="237" fill="white" transform="matrix(-1 8.74228e-08 8.74228e-08 1 733 0)"/>
</clipPath>
</defs>
</svg>
