<svg width="263" height="86" viewBox="0 0 263 86" fill="none" xmlns="http://www.w3.org/2000/svg">
<g clip-path="url(#clip0)">
<path d="M130.661 52.2226L108.64 34.9199L86.618 52.2226L64.5965 34.9199L42.575 52.2226L20.6583 34.9199L0.734051 51.908L0 51.0691L20.5534 33.4518L42.575 50.7545L64.5965 33.4518L86.618 50.7545L108.64 33.4518L130.661 50.7545L152.683 33.4518L174.599 50.7545L196.621 33.4518L218.642 50.7545L240.664 33.4518L263 51.0691L262.371 52.0128L240.664 34.9199L218.642 52.2226L196.621 34.9199L174.599 52.2226L152.683 34.9199L130.661 52.2226Z" fill="#7200E7"/>
<path d="M130.661 85.6744L108.64 68.3717L86.618 85.6744L64.5965 68.3717L42.575 85.6744L20.6583 68.3717L0.734051 85.3598L0 84.5208L20.5534 66.9036L42.575 84.2063L64.5965 66.9036L86.618 84.2063L108.64 66.9036L130.661 84.2063L152.683 66.9036L174.599 84.2063L196.621 66.9036L218.642 84.2063L240.664 66.9036L263 84.5208L262.371 85.3598L240.664 68.3717L218.642 85.6744L196.621 68.3717L174.599 85.6744L152.683 68.3717L130.661 85.6744Z" fill="#7200E7"/>
<path d="M130.661 18.7707L108.64 1.4681L86.618 18.7707L64.5965 1.4681L42.575 18.7707L20.6583 1.4681L0.734051 18.561L0 17.6172L20.5534 0L42.575 17.3026L64.5965 0L86.618 17.3026L108.64 0L130.661 17.3026L152.683 0L174.599 17.3026L196.621 0L218.642 17.3026L240.664 0L263 17.6172L262.371 18.561L240.664 1.4681L218.642 18.7707L196.621 1.4681L174.599 18.7707L152.683 1.4681L130.661 18.7707Z" fill="#7200E7"/>
</g>
<defs>
<clipPath id="clip0">
<rect width="263" height="85.6742" fill="white"/>
</clipPath>
</defs>
</svg>
